<svg version="1.1" viewBox="0.0 0.0 706.0 437.0" fill="none" stroke="none" stroke-linecap="square" stroke-miterlimit="10" width="706" height="437" xmlns:xlink="http://www.w3.org/1999/xlink" xmlns="http://www.w3.org/2000/svg"><path fill="#ffffff" d="M0 0L706.0 0L706.0 437.0L0 437.0L0 0Z" fill-rule="nonzero"/><path stroke="#333333" stroke-width="1.0" stroke-linecap="butt" d="M94.5 363.5L684.5 363.5" fill-rule="nonzero"/><path stroke="#cccccc" stroke-width="1.0" stroke-linecap="butt" d="M94.5 261.5L684.5 261.5" fill-rule="nonzero"/><path stroke="#cccccc" stroke-width="1.0" stroke-linecap="butt" d="M94.5 159.5L684.5 159.5" fill-rule="nonzero"/><path stroke="#cccccc" stroke-width="1.0" stroke-linecap="butt" d="M94.5 57.5L684.5 57.5" fill-rule="nonzero"/><clipPath id="id_0"><path d="M94.85 57.416668L684.15 57.416668L684.15 363.15L94.85 363.15L94.85 57.416668Z" clip-rule="nonzero"/></clipPath><path stroke="#4285f4" stroke-width="2.0" stroke-linecap="butt" clip-path="url(#id_0)" d="M121.63636 363.1477C121.63636 363.1477 157.35152 363.14716 175.20909 363.14734C193.06667 363.14752 210.92424 363.15018 228.78181 363.1488C246.63939 363.14746 264.49698 363.1441 282.35455 363.13922C300.21213 363.13434 318.0697 363.19308 335.92728 363.11957C353.78485 363.04605 371.64243 363.21902 389.5 362.69818C407.35757 362.17737 425.21515 362.33594 443.07272 359.9946C460.9303 357.65326 478.78787 355.22064 496.64545 348.65012C514.50305 342.07962 532.3606 341.9919 550.2182 320.57153C568.07574 299.15118 585.93335 259.81552 603.7909 220.12794C621.6485 180.44037 657.36365 82.44604 657.36365 82.44604" fill-rule="nonzero"/><path stroke="#ea4335" stroke-width="2.0" stroke-linecap="butt" clip-path="url(#id_0)" d="M121.63636 363.149C121.63636 363.149 157.35152 363.14944 175.20909 363.14923C193.06667 363.14902 210.92424 363.15408 228.78181 363.14777C246.63939 363.14145 264.49698 363.11615 282.35455 363.11133C300.21213 363.1065 318.0697 363.17233 335.92728 363.11887C353.78485 363.06543 371.64243 363.15198 389.5 362.79065C407.35757 362.42932 425.21515 362.58212 443.07272 360.95087C460.9303 359.31964 478.78787 357.6676 496.64545 353.0031C514.50305 348.33862 532.3606 347.84354 550.2182 332.96393C568.07574 318.08432 585.93335 291.29587 603.7909 263.72552C621.6485 236.15517 657.36365 167.54181 657.36365 167.54181" fill-rule="nonzero"/><path fill="#000000" fill-opacity="0.0" clip-path="url(#id_0)" d="M124.63636 363.1477C124.63636 364.80457 123.29322 366.1477 121.63636 366.1477C119.97951 366.1477 118.63636 364.80457 118.63636 363.1477C118.63636 361.49084 119.97951 360.1477 121.63636 360.1477C123.29322 360.1477 124.63636 361.49084 124.63636 363.1477Z" fill-rule="nonzero"/><path fill="#000000" fill-opacity="0.0" clip-path="url(#id_0)" d="M178.20909 363.14734C178.20909 364.8042 176.86595 366.14734 175.20909 366.14734C173.55223 366.14734 172.20909 364.8042 172.20909 363.14734C172.20909 361.4905 173.55223 360.14734 175.20909 360.14734C176.86595 360.14734 178.20909 361.4905 178.20909 363.14734Z" fill-rule="nonzero"/><path fill="#000000" fill-opacity="0.0" clip-path="url(#id_0)" d="M231.78181 363.1488C231.78181 364.80566 230.43867 366.1488 228.78181 366.1488C227.12497 366.1488 225.78181 364.80566 225.78181 363.1488C225.78181 361.49197 227.12497 360.1488 228.78181 360.1488C230.43867 360.1488 231.78181 361.49197 231.78181 363.1488Z" fill-rule="nonzero"/><path fill="#000000" fill-opacity="0.0" clip-path="url(#id_0)" d="M285.35455 363.13922C285.35455 364.79608 284.0114 366.13922 282.35455 366.13922C280.6977 366.13922 279.35455 364.79608 279.35455 363.13922C279.35455 361.48236 280.6977 360.13922 282.35455 360.13922C284.0114 360.13922 285.35455 361.48236 285.35455 363.13922Z" fill-rule="nonzero"/><path fill="#000000" fill-opacity="0.0" clip-path="url(#id_0)" d="M338.92728 363.11957C338.92728 364.77643 337.58414 366.11957 335.92728 366.11957C334.27042 366.11957 332.92728 364.77643 332.92728 363.11957C332.92728 361.4627 334.27042 360.11957 335.92728 360.11957C337.58414 360.11957 338.92728 361.4627 338.92728 363.11957Z" fill-rule="nonzero"/><path fill="#000000" fill-opacity="0.0" clip-path="url(#id_0)" d="M392.5 362.69818C392.5 364.35504 391.15686 365.69818 389.5 365.69818C387.84314 365.69818 386.5 364.35504 386.5 362.69818C386.5 361.04132 387.84314 359.69818 389.5 359.69818C391.15686 359.69818 392.5 361.04132 392.5 362.69818Z" fill-rule="nonzero"/><path fill="#000000" fill-opacity="0.0" clip-path="url(#id_0)" d="M446.07272 359.9946C446.07272 361.65143 444.72958 362.9946 443.07272 362.9946C441.41586 362.9946 440.07272 361.65143 440.07272 359.9946C440.07272 358.33774 441.41586 356.9946 443.07272 356.9946C444.72958 356.9946 446.07272 358.33774 446.07272 359.9946Z" fill-rule="nonzero"/><path fill="#000000" fill-opacity="0.0" clip-path="url(#id_0)" d="M499.64545 348.65012C499.64545 350.30698 498.3023 351.65012 496.64545 351.65012C494.9886 351.65012 493.64545 350.30698 493.64545 348.65012C493.64545 346.9933 494.9886 345.65012 496.64545 345.65012C498.3023 345.65012 499.64545 346.9933 499.64545 348.65012Z" fill-rule="nonzero"/><path fill="#000000" fill-opacity="0.0" clip-path="url(#id_0)" d="M553.2182 320.57153C553.2182 322.2284 551.87506 323.57153 550.2182 323.57153C548.56134 323.57153 547.2182 322.2284 547.2182 320.57153C547.2182 318.91467 548.56134 317.57153 550.2182 317.57153C551.87506 317.57153 553.2182 318.91467 553.2182 320.57153Z" fill-rule="nonzero"/><path fill="#000000" fill-opacity="0.0" clip-path="url(#id_0)" d="M606.7909 220.12794C606.7909 221.7848 605.44775 223.12794 603.7909 223.12794C602.13403 223.12794 600.7909 221.7848 600.7909 220.12794C600.7909 218.4711 602.13403 217.12794 603.7909 217.12794C605.44775 217.12794 606.7909 218.4711 606.7909 220.12794Z" fill-rule="nonzero"/><path fill="#000000" fill-opacity="0.0" clip-path="url(#id_0)" d="M660.36365 82.44604C660.36365 84.10289 659.0205 85.44604 657.36365 85.44604C655.7068 85.44604 654.36365 84.10289 654.36365 82.44604C654.36365 80.789185 655.7068 79.44604 657.36365 79.44604C659.0205 79.44604 660.36365 80.789185 660.36365 82.44604Z" fill-rule="nonzero"/><path fill="#000000" fill-opacity="0.0" clip-path="url(#id_0)" d="M124.63636 363.149C124.63636 364.80585 123.29322 366.149 121.63636 366.149C119.97951 366.149 118.63636 364.80585 118.63636 363.149C118.63636 361.49216 119.97951 360.149 121.63636 360.149C123.29322 360.149 124.63636 361.49216 124.63636 363.149Z" fill-rule="nonzero"/><path fill="#000000" fill-opacity="0.0" clip-path="url(#id_0)" d="M178.20909 363.14923C178.20909 364.8061 176.86595 366.14923 175.20909 366.14923C173.55223 366.14923 172.20909 364.8061 172.20909 363.14923C172.20909 361.49237 173.55223 360.14923 175.20909 360.14923C176.86595 360.14923 178.20909 361.49237 178.20909 363.14923Z" fill-rule="nonzero"/><path fill="#000000" fill-opacity="0.0" clip-path="url(#id_0)" d="M231.78181 363.14777C231.78181 364.80463 230.43867 366.14777 228.78181 366.14777C227.12497 366.14777 225.78181 364.80463 225.78181 363.14777C225.78181 361.4909 227.12497 360.14777 228.78181 360.14777C230.43867 360.14777 231.78181 361.4909 231.78181 363.14777Z" fill-rule="nonzero"/><path fill="#000000" fill-opacity="0.0" clip-path="url(#id_0)" d="M285.35455 363.11133C285.35455 364.7682 284.0114 366.11133 282.35455 366.11133C280.6977 366.11133 279.35455 364.7682 279.35455 363.11133C279.35455 361.45447 280.6977 360.11133 282.35455 360.11133C284.0114 360.11133 285.35455 361.45447 285.35455 363.11133Z" fill-rule="nonzero"/><path fill="#000000" fill-opacity="0.0" clip-path="url(#id_0)" d="M338.92728 363.11887C338.92728 364.77573 337.58414 366.11887 335.92728 366.11887C334.27042 366.11887 332.92728 364.77573 332.92728 363.11887C332.92728 361.46204 334.27042 360.11887 335.92728 360.11887C337.58414 360.11887 338.92728 361.46204 338.92728 363.11887Z" fill-rule="nonzero"/><path fill="#000000" fill-opacity="0.0" clip-path="url(#id_0)" d="M392.5 362.79065C392.5 364.4475 391.15686 365.79065 389.5 365.79065C387.84314 365.79065 386.5 364.4475 386.5 362.79065C386.5 361.1338 387.84314 359.79065 389.5 359.79065C391.15686 359.79065 392.5 361.1338 392.5 362.79065Z" fill-rule="nonzero"/><path fill="#000000" fill-opacity="0.0" clip-path="url(#id_0)" d="M446.07272 360.95087C446.07272 362.60773 444.72958 363.95087 443.07272 363.95087C441.41586 363.95087 440.07272 362.60773 440.07272 360.95087C440.07272 359.29404 441.41586 357.95087 443.07272 357.95087C444.72958 357.95087 446.07272 359.29404 446.07272 360.95087Z" fill-rule="nonzero"/><path fill="#000000" fill-opacity="0.0" clip-path="url(#id_0)" d="M499.64545 353.0031C499.64545 354.65997 498.3023 356.0031 496.64545 356.0031C494.9886 356.0031 493.64545 354.65997 493.64545 353.0031C493.64545 351.34625 494.9886 350.0031 496.64545 350.0031C498.3023 350.0031 499.64545 351.34625 499.64545 353.0031Z" fill-rule="nonzero"/><path fill="#000000" fill-opacity="0.0" clip-path="url(#id_0)" d="M553.2182 332.96393C553.2182 334.6208 551.87506 335.96393 550.2182 335.96393C548.56134 335.96393 547.2182 334.6208 547.2182 332.96393C547.2182 331.30707 548.56134 329.96393 550.2182 329.96393C551.87506 329.96393 553.2182 331.30707 553.2182 332.96393Z" fill-rule="nonzero"/><path fill="#000000" fill-opacity="0.0" clip-path="url(#id_0)" d="M606.7909 263.72552C606.7909 265.3824 605.44775 266.72552 603.7909 266.72552C602.13403 266.72552 600.7909 265.3824 600.7909 263.72552C600.7909 262.06866 602.13403 260.72552 603.7909 260.72552C605.44775 260.72552 606.7909 262.06866 606.7909 263.72552Z" fill-rule="nonzero"/><path fill="#000000" fill-opacity="0.0" clip-path="url(#id_0)" d="M660.36365 167.54181C660.36365 169.19867 659.0205 170.54181 657.36365 170.54181C655.7068 170.54181 654.36365 169.19867 654.36365 167.54181C654.36365 165.88496 655.7068 164.54181 657.36365 164.54181C659.0205 164.54181 660.36365 165.88496 660.36365 167.54181Z" fill-rule="nonzero"/><path fill="#000000" d="M365.125 412.15L365.125 403.55624L366.25 403.55624L366.25 412.15L365.125 412.15ZM370.09375 411.2125L370.25 412.13437Q369.79688 412.22812 369.45312 412.22812Q368.875 412.22812 368.5625 412.05624Q368.25 411.86874 368.10938 411.57187Q367.98438 411.275 367.98438 410.32187L367.98438 406.74374L367.21875 406.74374L367.21875 405.93124L367.98438 405.93124L367.98438 404.38437L369.03125 403.75937L369.03125 405.93124L370.09375 405.93124L370.09375 406.74374L369.03125 406.74374L369.03125 410.38437Q369.03125 410.8375 369.07812 410.9625Q369.14062 411.0875 369.26562 411.16562Q369.39062 411.24374 369.625 411.24374Q369.8125 411.24374 370.09375 411.2125ZM375.04688 410.15L376.14062 410.275Q375.89062 411.22812 375.1875 411.75937Q374.48438 412.29062 373.40625 412.29062Q372.04688 412.29062 371.23438 411.44687Q370.4375 410.60312 370.4375 409.0875Q370.4375 407.525 371.25 406.66562Q372.0625 405.79062 373.34375 405.79062Q374.59375 405.79062 375.375 406.63437Q376.17188 407.47812 376.17188 409.025Q376.17188 409.11874 376.17188 409.30624L371.53125 409.30624Q371.59375 410.3375 372.10938 410.88437Q372.625 411.41562 373.40625 411.41562Q373.98438 411.41562 374.39062 411.11874Q374.8125 410.80624 375.04688 410.15ZM371.59375 408.44687L375.0625 408.44687Q375.0 407.65 374.67188 407.25937Q374.15625 406.65 373.35938 406.65Q372.625 406.65 372.125 407.13437Q371.64062 407.61874 371.59375 408.44687ZM377.78125 412.15L377.78125 405.93124L378.73438 405.93124L378.73438 406.86874Q379.09375 406.2125 379.39062 406.00937Q379.70312 405.79062 380.07812 405.79062Q380.60938 405.79062 381.15625 406.11874L380.79688 407.10312Q380.40625 406.86874 380.03125 406.86874Q379.67188 406.86874 379.39062 407.0875Q379.125 407.29062 379.01562 407.66562Q378.82812 408.22812 378.82812 408.88437L378.82812 412.15L377.78125 412.15ZM385.85938 411.38437Q385.26562 411.88437 384.71875 412.0875Q384.1875 412.29062 383.5625 412.29062Q382.53125 412.29062 381.98438 411.79062Q381.4375 411.29062 381.4375 410.50937Q381.4375 410.05624 381.64062 409.68124Q381.84375 409.29062 382.1875 409.07187Q382.53125 408.8375 382.95312 408.72812Q383.25 408.63437 383.89062 408.55624Q385.15625 408.41562 385.76562 408.19687Q385.76562 407.97812 385.76562 407.93124Q385.76562 407.275 385.46875 407.00937Q385.0625 406.66562 384.26562 406.66562Q383.53125 406.66562 383.17188 406.93124Q382.8125 407.18124 382.64062 407.8375L381.60938 407.69687Q381.75 407.04062 382.07812 406.63437Q382.40625 406.22812 383.01562 406.00937Q383.625 405.79062 384.42188 405.79062Q385.21875 405.79062 385.71875 405.97812Q386.21875 406.16562 386.45312 406.44687Q386.6875 406.72812 386.78125 407.16562Q386.82812 407.43124 386.82812 408.13437L386.82812 409.54062Q386.82812 411.00937 386.89062 411.4Q386.96875 411.79062 387.17188 412.15L386.0625 412.15Q385.90625 411.82187 385.85938 411.38437ZM385.76562 409.025Q385.1875 409.25937 384.04688 409.43124Q383.39062 409.525 383.125 409.65Q382.85938 409.75937 382.70312 409.97812Q382.5625 410.19687 382.5625 410.47812Q382.5625 410.9 382.875 411.18124Q383.20312 411.4625 383.8125 411.4625Q384.42188 411.4625 384.89062 411.19687Q385.375 410.93124 385.59375 410.4625Q385.76562 410.10312 385.76562 409.41562L385.76562 409.025ZM391.09375 411.2125L391.25 412.13437Q390.79688 412.22812 390.45312 412.22812Q389.875 412.22812 389.5625 412.05624Q389.25 411.86874 389.10938 411.57187Q388.98438 411.275 388.98438 410.32187L388.98438 406.74374L388.21875 406.74374L388.21875 405.93124L388.98438 405.93124L388.98438 404.38437L390.03125 403.75937L390.03125 405.93124L391.09375 405.93124L391.09375 406.74374L390.03125 406.74374L390.03125 410.38437Q390.03125 410.8375 390.07812 410.9625Q390.14062 411.0875 390.26562 411.16562Q390.39062 411.24374 390.625 411.24374Q390.8125 411.24374 391.09375 411.2125ZM391.79688 404.775L391.79688 403.55624L392.85938 403.55624L392.85938 404.775L391.79688 404.775ZM391.79688 412.15L391.79688 405.93124L392.85938 405.93124L392.85938 412.15L391.79688 412.15ZM394.40625 409.04062Q394.40625 407.30624 395.35938 406.47812Q396.15625 405.79062 397.3125 405.79062Q398.59375 405.79062 399.40625 406.63437Q400.23438 407.4625 400.23438 408.94687Q400.23438 410.15 399.875 410.8375Q399.51562 411.525 398.8125 411.91562Q398.125 412.29062 397.3125 412.29062Q396.01562 412.29062 395.20312 411.4625Q394.40625 410.61874 394.40625 409.04062ZM395.48438 409.04062Q395.48438 410.22812 396.0 410.82187Q396.53125 411.41562 397.3125 411.41562Q398.10938 411.41562 398.625 410.82187Q399.14062 410.22812 399.14062 409.00937Q399.14062 407.85312 398.60938 407.25937Q398.09375 406.66562 397.3125 406.66562Q396.53125 406.66562 396.0 407.25937Q395.48438 407.8375 395.48438 409.04062ZM401.79688 412.15L401.79688 405.93124L402.73438 405.93124L402.73438 406.80624Q403.42188 405.79062 404.71875 405.79062Q405.28125 405.79062 405.75 405.99374Q406.23438 406.19687 406.46875 406.525Q406.70312 406.85312 406.79688 407.29062Q406.84375 407.5875 406.84375 408.32187L406.84375 412.15L405.79688 412.15L405.79688 408.36874Q405.79688 407.7125 405.67188 407.4Q405.54688 407.0875 405.23438 406.9Q404.92188 406.69687 404.5 406.69687Q403.82812 406.69687 403.32812 407.13437Q402.84375 407.55624 402.84375 408.74374L402.84375 412.15L401.79688 412.15ZM408.375 410.29062L409.40625 410.13437Q409.5 410.75937 409.89062 411.0875Q410.29688 411.41562 411.03125 411.41562Q411.75 411.41562 412.09375 411.13437Q412.45312 410.8375 412.45312 410.43124Q412.45312 410.07187 412.14062 409.86874Q411.92188 409.72812 411.0625 409.50937Q409.90625 409.2125 409.45312 409.00937Q409.01562 408.79062 408.78125 408.41562Q408.54688 408.04062 408.54688 407.57187Q408.54688 407.16562 408.73438 406.80624Q408.92188 406.44687 409.25 406.2125Q409.5 406.04062 409.92188 405.91562Q410.34375 405.79062 410.84375 405.79062Q411.5625 405.79062 412.10938 406.00937Q412.67188 406.2125 412.9375 406.57187Q413.20312 406.93124 413.29688 407.525L412.26562 407.66562Q412.20312 407.19687 411.85938 406.93124Q411.53125 406.65 410.90625 406.65Q410.1875 406.65 409.875 406.9Q409.5625 407.13437 409.5625 407.4625Q409.5625 407.66562 409.6875 407.82187Q409.82812 407.99374 410.09375 408.10312Q410.25 408.16562 411.03125 408.36874Q412.15625 408.68124 412.59375 408.86874Q413.03125 409.05624 413.28125 409.41562Q413.53125 409.775 413.53125 410.32187Q413.53125 410.85312 413.21875 411.32187Q412.92188 411.775 412.34375 412.04062Q411.76562 412.29062 411.03125 412.29062Q409.8125 412.29062 409.17188 411.79062Q408.54688 411.275 408.375 410.29062Z" fill-rule="nonzero"/><path fill="#000000" d="M32.849995 242.17397L25.27187 242.17397L25.27187 245.00209L24.256245 245.00209L24.256245 238.18959L25.27187 238.18959L25.27187 241.03334L32.849995 241.03334L32.849995 242.17397ZM25.474995 237.48647L24.256245 237.48647L24.256245 236.42397L25.474995 236.42397L25.474995 237.48647ZM32.849995 237.48647L26.631245 237.48647L26.631245 236.42397L32.849995 236.42397L32.849995 237.48647ZM32.849995 234.48647L26.631245 234.48647L26.631245 233.54897L27.506245 233.54897Q27.037495 233.25209 26.77187 232.76772Q26.49062 232.28334 26.49062 231.65834Q26.49062 230.97084 26.77187 230.53334Q27.05312 230.08022 27.568745 229.90834Q26.49062 229.15834 26.49062 227.98647Q26.49062 227.04897 27.006245 226.56459Q27.506245 226.06459 28.58437 226.06459L32.849995 226.06459L32.849995 227.11147L28.92812 227.11147Q28.30312 227.11147 28.02187 227.22084Q27.74062 227.31459 27.568745 227.58022Q27.39687 227.84584 27.39687 228.22084Q27.39687 228.87709 27.83437 229.31459Q28.27187 229.73647 29.24062 229.73647L32.849995 229.73647L32.849995 230.79897L28.80312 230.79897Q28.099995 230.79897 27.756245 231.06459Q27.39687 231.31459 27.39687 231.89272Q27.39687 232.34584 27.631245 232.72084Q27.86562 233.09584 28.318745 233.26772Q28.77187 233.43959 29.61562 233.43959L32.849995 233.43959L32.849995 234.48647ZM30.849995 219.23647L30.974995 218.14272Q31.92812 218.39272 32.45937 219.09584Q32.99062 219.79897 32.99062 220.87709Q32.99062 222.23647 32.14687 223.04897Q31.30312 223.84584 29.787495 223.84584Q28.224995 223.84584 27.36562 223.03334Q26.49062 222.22084 26.49062 220.93959Q26.49062 219.68959 27.33437 218.90834Q28.17812 218.11147 29.724995 218.11147Q29.818745 218.11147 30.006245 218.11147L30.006245 222.75209Q31.037495 222.68959 31.58437 222.17397Q32.11562 221.65834 32.11562 220.87709Q32.11562 220.29897 31.818745 219.89272Q31.506245 219.47084 30.849995 219.23647ZM29.14687 222.68959L29.14687 219.22084Q28.349995 219.28334 27.95937 219.61147Q27.349995 220.12709 27.349995 220.92397Q27.349995 221.65834 27.83437 222.15834Q28.318745 222.64272 29.14687 222.68959ZM35.381245 211.47084Q34.27187 212.34584 32.80312 212.95522Q31.318745 213.54897 29.74062 213.54897Q28.349995 213.54897 27.068745 213.11147Q25.58437 212.58022 24.11562 211.47084L24.11562 210.72084Q25.33437 211.42397 25.849995 211.65834Q26.662495 212.01772 27.537495 212.22084Q28.631245 212.47084 29.74062 212.47084Q32.568745 212.47084 35.381245 210.72084L35.381245 211.47084ZM32.849995 209.48647L26.631245 209.48647L26.631245 208.54897L27.506245 208.54897Q27.037495 208.25209 26.77187 207.76772Q26.49062 207.28334 26.49062 206.65834Q26.49062 205.97084 26.77187 205.53334Q27.05312 205.08022 27.568745 204.90834Q26.49062 204.15834 26.49062 202.98647Q26.49062 202.04897 27.006245 201.56459Q27.506245 201.06459 28.58437 201.06459L32.849995 201.06459L32.849995 202.11147L28.92812 202.11147Q28.30312 202.11147 28.02187 202.22084Q27.74062 202.31459 27.568745 202.58022Q27.39687 202.84584 27.39687 203.22084Q27.39687 203.87709 27.83437 204.31459Q28.27187 204.73647 29.24062 204.73647L32.849995 204.73647L32.849995 205.79897L28.80312 205.79897Q28.099995 205.79897 27.756245 206.06459Q27.39687 206.31459 27.39687 206.89272Q27.39687 207.34584 27.631245 207.72084Q27.86562 208.09584 28.318745 208.26772Q28.77187 208.43959 29.61562 208.43959L32.849995 208.43959L32.849995 209.48647ZM30.99062 198.90834L30.83437 197.87709Q31.45937 197.78334 31.787495 197.39272Q32.11562 196.98647 32.11562 196.25209Q32.11562 195.53334 31.83437 195.18959Q31.537495 194.83022 31.131245 194.83022Q30.77187 194.83022 30.568745 195.14272Q30.42812 195.36147 30.20937 196.22084Q29.912495 197.37709 29.70937 197.83022Q29.49062 198.26772 29.11562 198.50209Q28.74062 198.73647 28.27187 198.73647Q27.86562 198.73647 27.506245 198.54897Q27.14687 198.36147 26.912495 198.03334Q26.74062 197.78334 26.61562 197.36147Q26.49062 196.93959 26.49062 196.43959Q26.49062 195.72084 26.70937 195.17397Q26.912495 194.61147 27.27187 194.34584Q27.631245 194.08022 28.224995 193.98647L28.36562 195.01772Q27.89687 195.08022 27.631245 195.42397Q27.349995 195.75209 27.349995 196.37709Q27.349995 197.09584 27.599995 197.40834Q27.83437 197.72084 28.162495 197.72084Q28.36562 197.72084 28.52187 197.59584Q28.693745 197.45522 28.80312 197.18959Q28.86562 197.03334 29.068745 196.25209Q29.381245 195.12709 29.568745 194.68959Q29.756245 194.25209 30.11562 194.00209Q30.474995 193.75209 31.02187 193.75209Q31.55312 193.75209 32.02187 194.06459Q32.474995 194.36147 32.74062 194.93959Q32.99062 195.51772 32.99062 196.25209Q32.99062 197.47084 32.49062 198.11147Q31.974995 198.73647 30.99062 198.90834ZM35.381245 190.79897L35.381245 191.54897Q32.568745 189.79897 29.74062 189.79897Q28.64687 189.79897 27.55312 190.04897Q26.67812 190.25209 25.86562 190.61147Q25.349995 190.84584 24.11562 191.54897L24.11562 190.79897Q25.58437 189.70522 27.068745 189.17397Q28.349995 188.72084 29.74062 188.72084Q31.318745 188.72084 32.80312 189.33022Q34.27187 189.93959 35.381245 190.79897Z" fill-rule="nonzero"/><path fill="#000000" d="M82.35 362.91562Q82.35 361.38437 82.6625 360.4625Q82.975 359.525 83.58437 359.025Q84.20937 358.525 85.14687 358.525Q85.83437 358.525 86.35 358.80624Q86.88125 359.0875 87.225 359.61874Q87.56875 360.13437 87.75625 360.88437Q87.94375 361.63437 87.94375 362.91562Q87.94375 364.43124 87.63125 365.35312Q87.33437 366.275 86.70937 366.79062Q86.1 367.29062 85.14687 367.29062Q83.9125 367.29062 83.19375 366.4Q82.35 365.3375 82.35 362.91562ZM83.42812 362.91562Q83.42812 365.025 83.92812 365.72812Q84.42812 366.43124 85.14687 366.43124Q85.88125 366.43124 86.36562 365.72812Q86.86562 365.025 86.86562 362.91562Q86.86562 360.79062 86.36562 360.10312Q85.88125 359.4 85.13125 359.4Q84.4125 359.4 83.975 360.00937Q83.42812 360.79062 83.42812 362.91562Z" fill-rule="nonzero"/><path fill="#000000" d="M61.35 262.9889L62.459373 262.89514Q62.584373 263.70764 63.021873 264.1139Q63.475 264.52014 64.11562 264.52014Q64.86562 264.52014 65.39687 263.94202Q65.92812 263.3639 65.92812 262.4264Q65.92812 261.52014 65.4125 261.00452Q64.9125 260.47327 64.08437 260.47327Q63.584373 260.47327 63.1625 260.70764Q62.75625 260.94202 62.521873 261.3014L61.5375 261.1764L62.365623 256.77014L66.64687 256.77014L66.64687 257.77014L63.209373 257.77014L62.75625 260.08264Q63.521873 259.53577 64.36562 259.53577Q65.49062 259.53577 66.25625 260.31702Q67.0375 261.09827 67.0375 262.33264Q67.0375 263.4889 66.36562 264.34827Q65.5375 265.37952 64.11562 265.37952Q62.94375 265.37952 62.19375 264.72327Q61.459373 264.06702 61.35 262.9889ZM68.35 261.00452Q68.35 259.47327 68.6625 258.5514Q68.975 257.6139 69.58437 257.1139Q70.20937 256.6139 71.14687 256.6139Q71.83437 256.6139 72.35 256.89514Q72.88125 257.1764 73.225 257.70764Q73.56875 258.22327 73.75625 258.97327Q73.94375 259.72327 73.94375 261.00452Q73.94375 262.52014 73.63125 263.44202Q73.33437 264.3639 72.70937 264.87952Q72.1 265.37952 71.14687 265.37952Q69.9125 265.37952 69.19375 264.4889Q68.35 263.4264 68.35 261.00452ZM69.42812 261.00452Q69.42812 263.1139 69.92812 263.81702Q70.42812 264.52014 71.14687 264.52014Q71.88125 264.52014 72.36562 263.81702Q72.86562 263.1139 72.86562 261.00452Q72.86562 258.87952 72.36562 258.19202Q71.88125 257.4889 71.13125 257.4889Q70.4125 257.4889 69.975 258.09827Q69.42812 258.87952 69.42812 261.00452ZM75.35 261.00452Q75.35 259.47327 75.6625 258.5514Q75.975 257.6139 76.58437 257.1139Q77.20937 256.6139 78.14687 256.6139Q78.83437 256.6139 79.35 256.89514Q79.88125 257.1764 80.225 257.70764Q80.56875 258.22327 80.75625 258.97327Q80.94375 259.72327 80.94375 261.00452Q80.94375 262.52014 80.63125 263.44202Q80.33437 264.3639 79.70937 264.87952Q79.1 265.37952 78.14687 265.37952Q76.9125 265.37952 76.19375 264.4889Q75.35 263.4264 75.35 261.00452ZM76.42812 261.00452Q76.42812 263.1139 76.92812 263.81702Q77.42812 264.52014 78.14687 264.52014Q78.88125 264.52014 79.36562 263.81702Q79.86562 263.1139 79.86562 261.00452Q79.86562 258.87952 79.36562 258.19202Q78.88125 257.4889 78.13125 257.4889Q77.4125 257.4889 76.975 258.09827Q76.42812 258.87952 76.42812 261.00452ZM82.35 261.00452Q82.35 259.47327 82.6625 258.5514Q82.975 257.6139 83.58437 257.1139Q84.20937 256.6139 85.14687 256.6139Q85.83437 256.6139 86.35 256.89514Q86.88125 257.1764 87.225 257.70764Q87.56875 258.22327 87.75625 258.97327Q87.94375 259.72327 87.94375 261.00452Q87.94375 262.52014 87.63125 263.44202Q87.33437 264.3639 86.70937 264.87952Q86.1 265.37952 85.14687 265.37952Q83.9125 265.37952 83.19375 264.4889Q82.35 263.4264 82.35 261.00452ZM83.42812 261.00452Q83.42812 263.1139 83.92812 263.81702Q84.42812 264.52014 85.14687 264.52014Q85.88125 264.52014 86.36562 263.81702Q86.86562 263.1139 86.86562 261.00452Q86.86562 258.87952 86.36562 258.19202Q85.88125 257.4889 85.13125 257.4889Q84.4125 257.4889 83.975 258.09827Q83.42812 258.87952 83.42812 261.00452Z" fill-rule="nonzero"/><path fill="#000000" d="M58.31875 163.32777L57.271873 163.32777L57.271873 156.60902Q56.88125 156.9684 56.25625 157.3434Q55.646873 157.70277 55.1625 157.87465L55.1625 156.85902Q56.0375 156.43715 56.69375 155.85902Q57.365623 155.26527 57.646873 154.70277L58.31875 154.70277L58.31875 163.32777ZM61.35 159.0934Q61.35 157.56215 61.6625 156.64027Q61.975 155.70277 62.584373 155.20277Q63.209373 154.70277 64.14687 154.70277Q64.83437 154.70277 65.35 154.98402Q65.88125 155.26527 66.225 155.79652Q66.56875 156.31215 66.75625 157.06215Q66.94375 157.81215 66.94375 159.0934Q66.94375 160.60902 66.63125 161.5309Q66.33437 162.45277 65.70937 162.9684Q65.1 163.4684 64.14687 163.4684Q62.9125 163.4684 62.19375 162.57777Q61.35 161.51527 61.35 159.0934ZM62.428123 159.0934Q62.428123 161.20277 62.928123 161.9059Q63.428123 162.60902 64.14687 162.60902Q64.88125 162.60902 65.36562 161.9059Q65.86562 161.20277 65.86562 159.0934Q65.86562 156.9684 65.36562 156.2809Q64.88125 155.57777 64.13125 155.57777Q63.4125 155.57777 62.975 156.18715Q62.428123 156.9684 62.428123 159.0934ZM68.35 159.0934Q68.35 157.56215 68.6625 156.64027Q68.975 155.70277 69.58437 155.20277Q70.20937 154.70277 71.14687 154.70277Q71.83437 154.70277 72.35 154.98402Q72.88125 155.26527 73.225 155.79652Q73.56875 156.31215 73.75625 157.06215Q73.94375 157.81215 73.94375 159.0934Q73.94375 160.60902 73.63125 161.5309Q73.33437 162.45277 72.70937 162.9684Q72.1 163.4684 71.14687 163.4684Q69.9125 163.4684 69.19375 162.57777Q68.35 161.51527 68.35 159.0934ZM69.42812 159.0934Q69.42812 161.20277 69.92812 161.9059Q70.42812 162.60902 71.14687 162.60902Q71.88125 162.60902 72.36562 161.9059Q72.86562 161.20277 72.86562 159.0934Q72.86562 156.9684 72.36562 156.2809Q71.88125 155.57777 71.13125 155.57777Q70.4125 155.57777 69.975 156.18715Q69.42812 156.9684 69.42812 159.0934ZM75.35 159.0934Q75.35 157.56215 75.6625 156.64027Q75.975 155.70277 76.58437 155.20277Q77.20937 154.70277 78.14687 154.70277Q78.83437 154.70277 79.35 154.98402Q79.88125 155.26527 80.225 155.79652Q80.56875 156.31215 80.75625 157.06215Q80.94375 157.81215 80.94375 159.0934Q80.94375 160.60902 80.63125 161.5309Q80.33437 162.45277 79.70937 162.9684Q79.1 163.4684 78.14687 163.4684Q76.9125 163.4684 76.19375 162.57777Q75.35 161.51527 75.35 159.0934ZM76.42812 159.0934Q76.42812 161.20277 76.92812 161.9059Q77.42812 162.60902 78.14687 162.60902Q78.88125 162.60902 79.36562 161.9059Q79.86562 161.20277 79.86562 159.0934Q79.86562 156.9684 79.36562 156.2809Q78.88125 155.57777 78.13125 155.57777Q77.4125 155.57777 76.975 156.18715Q76.42812 156.9684 76.42812 159.0934ZM82.35 159.0934Q82.35 157.56215 82.6625 156.64027Q82.975 155.70277 83.58437 155.20277Q84.20937 154.70277 85.14687 154.70277Q85.83437 154.70277 86.35 154.98402Q86.88125 155.26527 87.225 155.79652Q87.56875 156.31215 87.75625 157.06215Q87.94375 157.81215 87.94375 159.0934Q87.94375 160.60902 87.63125 161.5309Q87.33437 162.45277 86.70937 162.9684Q86.1 163.4684 85.14687 163.4684Q83.9125 163.4684 83.19375 162.57777Q82.35 161.51527 82.35 159.0934ZM83.42812 159.0934Q83.42812 161.20277 83.92812 161.9059Q84.42812 162.60902 85.14687 162.60902Q85.88125 162.60902 86.36562 161.9059Q86.86562 161.20277 86.86562 159.0934Q86.86562 156.9684 86.36562 156.2809Q85.88125 155.57777 85.13125 155.57777Q84.4125 155.57777 83.975 156.18715Q83.42812 156.9684 83.42812 159.0934Z" fill-rule="nonzero"/><path fill="#000000" d="M58.31875 61.416668L57.271873 61.416668L57.271873 54.697918Q56.88125 55.057293 56.25625 55.432293Q55.646873 55.791668 55.1625 55.963543L55.1625 54.947918Q56.0375 54.526043 56.69375 53.947918Q57.365623 53.354168 57.646873 52.791668L58.31875 52.791668L58.31875 61.416668ZM61.35 59.166668L62.459373 59.072918Q62.584373 59.885418 63.021873 60.291668Q63.475 60.697918 64.11562 60.697918Q64.86562 60.697918 65.39687 60.119793Q65.92812 59.541668 65.92812 58.604168Q65.92812 57.697918 65.4125 57.182293Q64.9125 56.651043 64.08437 56.651043Q63.584373 56.651043 63.1625 56.885418Q62.75625 57.119793 62.521873 57.479168L61.5375 57.354168L62.365623 52.947918L66.64687 52.947918L66.64687 53.947918L63.209373 53.947918L62.75625 56.260418Q63.521873 55.713543 64.36562 55.713543Q65.49062 55.713543 66.25625 56.494793Q67.0375 57.276043 67.0375 58.510418Q67.0375 59.666668 66.36562 60.526043Q65.5375 61.557293 64.11562 61.557293Q62.94375 61.557293 62.19375 60.901043Q61.459373 60.244793 61.35 59.166668ZM68.35 57.182293Q68.35 55.651043 68.6625 54.729168Q68.975 53.791668 69.58437 53.291668Q70.20937 52.791668 71.14687 52.791668Q71.83437 52.791668 72.35 53.072918Q72.88125 53.354168 73.225 53.885418Q73.56875 54.401043 73.75625 55.151043Q73.94375 55.901043 73.94375 57.182293Q73.94375 58.697918 73.63125 59.619793Q73.33437 60.541668 72.70937 61.057293Q72.1 61.557293 71.14687 61.557293Q69.9125 61.557293 69.19375 60.666668Q68.35 59.604168 68.35 57.182293ZM69.42812 57.182293Q69.42812 59.291668 69.92812 59.994793Q70.42812 60.697918 71.14687 60.697918Q71.88125 60.697918 72.36562 59.994793Q72.86562 59.291668 72.86562 57.182293Q72.86562 55.057293 72.36562 54.369793Q71.88125 53.666668 71.13125 53.666668Q70.4125 53.666668 69.975 54.276043Q69.42812 55.057293 69.42812 57.182293ZM75.35 57.182293Q75.35 55.651043 75.6625 54.729168Q75.975 53.791668 76.58437 53.291668Q77.20937 52.791668 78.14687 52.791668Q78.83437 52.791668 79.35 53.072918Q79.88125 53.354168 80.225 53.885418Q80.56875 54.401043 80.75625 55.151043Q80.94375 55.901043 80.94375 57.182293Q80.94375 58.697918 80.63125 59.619793Q80.33437 60.541668 79.70937 61.057293Q79.1 61.557293 78.14687 61.557293Q76.9125 61.557293 76.19375 60.666668Q75.35 59.604168 75.35 57.182293ZM76.42812 57.182293Q76.42812 59.291668 76.92812 59.994793Q77.42812 60.697918 78.14687 60.697918Q78.88125 60.697918 79.36562 59.994793Q79.86562 59.291668 79.86562 57.182293Q79.86562 55.057293 79.36562 54.369793Q78.88125 53.666668 78.13125 53.666668Q77.4125 53.666668 76.975 54.276043Q76.42812 55.057293 76.42812 57.182293ZM82.35 57.182293Q82.35 55.651043 82.6625 54.729168Q82.975 53.791668 83.58437 53.291668Q84.20937 52.791668 85.14687 52.791668Q85.83437 52.791668 86.35 53.072918Q86.88125 53.354168 87.225 53.885418Q87.56875 54.401043 87.75625 55.151043Q87.94375 55.901043 87.94375 57.182293Q87.94375 58.697918 87.63125 59.619793Q87.33437 60.541668 86.70937 61.057293Q86.1 61.557293 85.14687 61.557293Q83.9125 61.557293 83.19375 60.666668Q82.35 59.604168 82.35 57.182293ZM83.42812 57.182293Q83.42812 59.291668 83.92812 59.994793Q84.42812 60.697918 85.14687 60.697918Q85.88125 60.697918 86.36562 59.994793Q86.86562 59.291668 86.86562 57.182293Q86.86562 55.057293 86.36562 54.369793Q85.88125 53.666668 85.13125 53.666668Q84.4125 53.666668 83.975 54.276043Q83.42812 55.057293 83.42812 57.182293Z" fill-rule="nonzero"/><path fill="#000000" d="M122.60511 380.15L121.558235 380.15L121.558235 373.43124Q121.16761 373.79062 120.54261 374.16562Q119.933235 374.525 119.44886 374.69687L119.44886 373.68124Q120.32386 373.25937 120.98011 372.68124Q121.651985 372.0875 121.933235 371.525L122.60511 371.525L122.60511 380.15Z" fill-rule="nonzero"/><path fill="#000000" d="M169.17784 380.15L168.13097 380.15L168.13097 373.43124Q167.74034 373.79062 167.11534 374.16562Q166.50597 374.525 166.02159 374.69687L166.02159 373.68124Q166.89659 373.25937 167.55284 372.68124Q168.22472 372.0875 168.50597 371.525L169.17784 371.525L169.17784 380.15ZM172.20909 375.91562Q172.20909 374.38437 172.52159 373.4625Q172.83409 372.525 173.44347 372.025Q174.06847 371.525 175.00597 371.525Q175.69347 371.525 176.20909 371.80624Q176.74034 372.0875 177.08409 372.61874Q177.42784 373.13437 177.61534 373.88437Q177.80284 374.63437 177.80284 375.91562Q177.80284 377.43124 177.49034 378.35312Q177.19347 379.275 176.56847 379.79062Q175.95909 380.29062 175.00597 380.29062Q173.77159 380.29062 173.05284 379.4Q172.20909 378.3375 172.20909 375.91562ZM173.28722 375.91562Q173.28722 378.025 173.78722 378.72812Q174.28722 379.43124 175.00597 379.43124Q175.74034 379.43124 176.22472 378.72812Q176.72472 378.025 176.72472 375.91562Q176.72472 373.79062 176.22472 373.10312Q175.74034 372.4 174.99034 372.4Q174.27159 372.4 173.83409 373.00937Q173.28722 373.79062 173.28722 375.91562ZM179.20909 375.91562Q179.20909 374.38437 179.52159 373.4625Q179.83409 372.525 180.44347 372.025Q181.06847 371.525 182.00597 371.525Q182.69347 371.525 183.20909 371.80624Q183.74034 372.0875 184.08409 372.61874Q184.42784 373.13437 184.61534 373.88437Q184.80284 374.63437 184.80284 375.91562Q184.80284 377.43124 184.49034 378.35312Q184.19347 379.275 183.56847 379.79062Q182.95909 380.29062 182.00597 380.29062Q180.77159 380.29062 180.05284 379.4Q179.20909 378.3375 179.20909 375.91562ZM180.28722 375.91562Q180.28722 378.025 180.78722 378.72812Q181.28722 379.43124 182.00597 379.43124Q182.74034 379.43124 183.22472 378.72812Q183.72472 378.025 183.72472 375.91562Q183.72472 373.79062 183.22472 373.10312Q182.74034 372.4 181.99034 372.4Q181.27159 372.4 180.83409 373.00937Q180.28722 373.79062 180.28722 375.91562Z" fill-rule="nonzero"/><path fill="#000000" d="M225.75056 380.15L224.70369 380.15L224.70369 373.43124Q224.31306 373.79062 223.68806 374.16562Q223.07869 374.525 222.59431 374.69687L222.59431 373.68124Q223.46931 373.25937 224.12556 372.68124Q224.79744 372.0875 225.07869 371.525L225.75056 371.525L225.75056 380.15ZM229.15681 380.15L229.15681 371.55624L230.29744 371.55624L230.29744 375.82187L234.56306 371.55624L236.10994 371.55624L232.50056 375.04062L236.26619 380.15L234.76619 380.15L231.70369 375.80624L230.29744 377.16562L230.29744 380.15L229.15681 380.15Z" fill-rule="nonzero"/><path fill="#000000" d="M275.8233 380.15L274.77643 380.15L274.77643 373.43124Q274.3858 373.79062 273.7608 374.16562Q273.15143 374.525 272.66705 374.69687L272.66705 373.68124Q273.54205 373.25937 274.1983 372.68124Q274.87018 372.0875 275.15143 371.525L275.8233 371.525L275.8233 380.15ZM278.85455 375.91562Q278.85455 374.38437 279.16705 373.4625Q279.47955 372.525 280.08893 372.025Q280.71393 371.525 281.65143 371.525Q282.33893 371.525 282.85455 371.80624Q283.3858 372.0875 283.72955 372.61874Q284.0733 373.13437 284.2608 373.88437Q284.4483 374.63437 284.4483 375.91562Q284.4483 377.43124 284.1358 378.35312Q283.83893 379.275 283.21393 379.79062Q282.60455 380.29062 281.65143 380.29062Q280.41705 380.29062 279.6983 379.4Q278.85455 378.3375 278.85455 375.91562ZM279.93268 375.91562Q279.93268 378.025 280.43268 378.72812Q280.93268 379.43124 281.65143 379.43124Q282.3858 379.43124 282.87018 378.72812Q283.37018 378.025 283.37018 375.91562Q283.37018 373.79062 282.87018 373.10312Q282.3858 372.4 281.6358 372.4Q280.91705 372.4 280.47955 373.00937Q279.93268 373.79062 279.93268 375.91562ZM286.22955 380.15L286.22955 371.55624L287.37018 371.55624L287.37018 375.82187L291.6358 371.55624L293.18268 371.55624L289.5733 375.04062L293.33893 380.15L291.83893 380.15L288.77643 375.80624L287.37018 377.16562L287.37018 380.15L286.22955 380.15Z" fill-rule="nonzero"/><path fill="#000000" d="M323.42728 375.91562Q323.42728 374.38437 323.73978 373.4625Q324.05228 372.525 324.66165 372.025Q325.28665 371.525 326.22415 371.525Q326.91165 371.525 327.42728 371.80624Q327.95853 372.0875 328.30228 372.61874Q328.64603 373.13437 328.83353 373.88437Q329.02103 374.63437 329.02103 375.91562Q329.02103 377.43124 328.70853 378.35312Q328.41165 379.275 327.78665 379.79062Q327.17728 380.29062 326.22415 380.29062Q324.98978 380.29062 324.27103 379.4Q323.42728 378.3375 323.42728 375.91562ZM324.5054 375.91562Q324.5054 378.025 325.0054 378.72812Q325.5054 379.43124 326.22415 379.43124Q326.95853 379.43124 327.4429 378.72812Q327.9429 378.025 327.9429 375.91562Q327.9429 373.79062 327.4429 373.10312Q326.95853 372.4 326.20853 372.4Q325.48978 372.4 325.05228 373.00937Q324.5054 373.79062 324.5054 375.91562ZM331.02103 380.15L331.02103 378.94687L332.22415 378.94687L332.22415 380.15L331.02103 380.15ZM333.42728 377.9L334.53665 377.80624Q334.66165 378.61874 335.09915 379.025Q335.55228 379.43124 336.1929 379.43124Q336.9429 379.43124 337.47415 378.85312Q338.0054 378.275 338.0054 377.3375Q338.0054 376.43124 337.48978 375.91562Q336.98978 375.38437 336.16165 375.38437Q335.66165 375.38437 335.23978 375.61874Q334.83353 375.85312 334.59915 376.2125L333.61478 376.0875L334.4429 371.68124L338.72415 371.68124L338.72415 372.68124L335.28665 372.68124L334.83353 374.99374Q335.59915 374.44687 336.4429 374.44687Q337.5679 374.44687 338.33353 375.22812Q339.11478 376.00937 339.11478 377.24374Q339.11478 378.4 338.4429 379.25937Q337.61478 380.29062 336.1929 380.29062Q335.02103 380.29062 334.27103 379.63437Q333.53665 378.97812 333.42728 377.9ZM340.8179 380.15L340.8179 371.55624L342.53665 371.55624L344.5679 377.63437Q344.84915 378.49374 344.97415 378.91562Q345.11478 378.44687 345.42728 377.54062L347.48978 371.55624L349.02103 371.55624L349.02103 380.15L347.92728 380.15L347.92728 372.9625L345.42728 380.15L344.39603 380.15L341.91165 372.8375L341.91165 380.15L340.8179 380.15Z" fill-rule="nonzero"/><path fill="#000000" d="M385.96875 380.15L384.92188 380.15L384.92188 373.43124Q384.53125 373.79062 383.90625 374.16562Q383.29688 374.525 382.8125 374.69687L382.8125 373.68124Q383.6875 373.25937 384.34375 372.68124Q385.01562 372.0875 385.29688 371.525L385.96875 371.525L385.96875 380.15ZM389.39062 380.15L389.39062 371.55624L391.10938 371.55624L393.14062 377.63437Q393.42188 378.49374 393.54688 378.91562Q393.6875 378.44687 394.0 377.54062L396.0625 371.55624L397.59375 371.55624L397.59375 380.15L396.5 380.15L396.5 372.9625L394.0 380.15L392.96875 380.15L390.48438 372.8375L390.48438 380.15L389.39062 380.15Z" fill-rule="nonzero"/><path fill="#000000" d="M436.04147 380.15L434.9946 380.15L434.9946 373.43124Q434.60397 373.79062 433.97897 374.16562Q433.3696 374.525 432.88522 374.69687L432.88522 373.68124Q433.76022 373.25937 434.41647 372.68124Q435.08835 372.0875 435.3696 371.525L436.04147 371.525L436.04147 380.15ZM439.07272 375.91562Q439.07272 374.38437 439.38522 373.4625Q439.69772 372.525 440.3071 372.025Q440.9321 371.525 441.8696 371.525Q442.5571 371.525 443.07272 371.80624Q443.60397 372.0875 443.94772 372.61874Q444.29147 373.13437 444.47897 373.88437Q444.66647 374.63437 444.66647 375.91562Q444.66647 377.43124 444.35397 378.35312Q444.0571 379.275 443.4321 379.79062Q442.82272 380.29062 441.8696 380.29062Q440.63522 380.29062 439.91647 379.4Q439.07272 378.3375 439.07272 375.91562ZM440.15085 375.91562Q440.15085 378.025 440.65085 378.72812Q441.15085 379.43124 441.8696 379.43124Q442.60397 379.43124 443.08835 378.72812Q443.58835 378.025 443.58835 375.91562Q443.58835 373.79062 443.08835 373.10312Q442.60397 372.4 441.85397 372.4Q441.13522 372.4 440.69772 373.00937Q440.15085 373.79062 440.15085 375.91562ZM446.46335 380.15L446.46335 371.55624L448.1821 371.55624L450.21335 377.63437Q450.4946 378.49374 450.6196 378.91562Q450.76022 378.44687 451.07272 377.54062L453.13522 371.55624L454.66647 371.55624L454.66647 380.15L453.57272 380.15L453.57272 372.9625L451.07272 380.15L450.04147 380.15L447.5571 372.8375L447.5571 380.15L446.46335 380.15Z" fill-rule="nonzero"/><path fill="#000000" d="M485.64545 377.9L486.75482 377.80624Q486.87982 378.61874 487.31732 379.025Q487.77045 379.43124 488.41107 379.43124Q489.16107 379.43124 489.69232 378.85312Q490.22357 378.275 490.22357 377.3375Q490.22357 376.43124 489.70795 375.91562Q489.20795 375.38437 488.37982 375.38437Q487.87982 375.38437 487.45795 375.61874Q487.0517 375.85312 486.81732 376.2125L485.83295 376.0875L486.66107 371.68124L490.94232 371.68124L490.94232 372.68124L487.50482 372.68124L487.0517 374.99374Q487.81732 374.44687 488.66107 374.44687Q489.78607 374.44687 490.5517 375.22812Q491.33295 376.00937 491.33295 377.24374Q491.33295 378.4 490.66107 379.25937Q489.83295 380.29062 488.41107 380.29062Q487.2392 380.29062 486.4892 379.63437Q485.75482 378.97812 485.64545 377.9ZM492.64545 375.91562Q492.64545 374.38437 492.95795 373.4625Q493.27045 372.525 493.87982 372.025Q494.50482 371.525 495.44232 371.525Q496.12982 371.525 496.64545 371.80624Q497.1767 372.0875 497.52045 372.61874Q497.8642 373.13437 498.0517 373.88437Q498.2392 374.63437 498.2392 375.91562Q498.2392 377.43124 497.9267 378.35312Q497.62982 379.275 497.00482 379.79062Q496.39545 380.29062 495.44232 380.29062Q494.20795 380.29062 493.4892 379.4Q492.64545 378.3375 492.64545 375.91562ZM493.72357 375.91562Q493.72357 378.025 494.22357 378.72812Q494.72357 379.43124 495.44232 379.43124Q496.1767 379.43124 496.66107 378.72812Q497.16107 378.025 497.16107 375.91562Q497.16107 373.79062 496.66107 373.10312Q496.1767 372.4 495.4267 372.4Q494.70795 372.4 494.27045 373.00937Q493.72357 373.79062 493.72357 375.91562ZM500.03607 380.15L500.03607 371.55624L501.75482 371.55624L503.78607 377.63437Q504.06732 378.49374 504.19232 378.91562Q504.33295 378.44687 504.64545 377.54062L506.70795 371.55624L508.2392 371.55624L508.2392 380.15L507.14545 380.15L507.14545 372.9625L504.64545 380.15L503.6142 380.15L501.12982 372.8375L501.12982 380.15L500.03607 380.15Z" fill-rule="nonzero"/><path fill="#000000" d="M538.2182 375.91562Q538.2182 374.38437 538.5307 373.4625Q538.8432 372.525 539.4526 372.025Q540.0776 371.525 541.0151 371.525Q541.7026 371.525 542.2182 371.80624Q542.74945 372.0875 543.0932 372.61874Q543.43695 373.13437 543.62445 373.88437Q543.81195 374.63437 543.81195 375.91562Q543.81195 377.43124 543.49945 378.35312Q543.2026 379.275 542.5776 379.79062Q541.9682 380.29062 541.0151 380.29062Q539.7807 380.29062 539.06195 379.4Q538.2182 378.3375 538.2182 375.91562ZM539.2963 375.91562Q539.2963 378.025 539.7963 378.72812Q540.2963 379.43124 541.0151 379.43124Q541.74945 379.43124 542.2338 378.72812Q542.7338 378.025 542.7338 375.91562Q542.7338 373.79062 542.2338 373.10312Q541.74945 372.4 540.99945 372.4Q540.2807 372.4 539.8432 373.00937Q539.2963 373.79062 539.2963 375.91562ZM545.81195 380.15L545.81195 378.94687L547.0151 378.94687L547.0151 380.15L545.81195 380.15ZM552.18695 380.15L551.1401 380.15L551.1401 373.43124Q550.74945 373.79062 550.12445 374.16562Q549.5151 374.525 549.0307 374.69687L549.0307 373.68124Q549.9057 373.25937 550.56195 372.68124Q551.2338 372.0875 551.5151 371.525L552.18695 371.525L552.18695 380.15ZM555.5932 380.15L555.5932 371.55624L558.8276 371.55624Q559.81195 371.55624 560.4057 371.82187Q560.99945 372.0875 561.3276 372.63437Q561.6713 373.16562 561.6713 373.75937Q561.6713 374.30624 561.37445 374.79062Q561.0776 375.275 560.4682 375.57187Q561.24945 375.80624 561.6557 376.36874Q562.0776 376.91562 562.0776 377.66562Q562.0776 378.25937 561.8276 378.79062Q561.5776 379.30624 561.2026 379.5875Q560.8276 379.86874 560.24945 380.00937Q559.68695 380.15 558.87445 380.15L555.5932 380.15ZM556.7338 375.16562L558.5932 375.16562Q559.3432 375.16562 559.6713 375.07187Q560.1088 374.94687 560.3276 374.65Q560.5463 374.3375 560.5463 373.88437Q560.5463 373.4625 560.3432 373.13437Q560.1401 372.80624 559.74945 372.69687Q559.37445 372.57187 558.4526 372.57187L556.7338 372.57187L556.7338 375.16562ZM556.7338 379.13437L558.87445 379.13437Q559.4213 379.13437 559.6401 379.0875Q560.0463 379.025 560.2963 378.86874Q560.56195 378.69687 560.7338 378.38437Q560.9057 378.07187 560.9057 377.66562Q560.9057 377.18124 560.6557 376.82187Q560.4213 376.4625 559.9838 376.32187Q559.5463 376.18124 558.7182 376.18124L556.7338 376.18124L556.7338 379.13437Z" fill-rule="nonzero"/><path fill="#000000" d="M591.7909 375.91562Q591.7909 374.38437 592.1034 373.4625Q592.4159 372.525 593.02527 372.025Q593.65027 371.525 594.58777 371.525Q595.27527 371.525 595.7909 371.80624Q596.32214 372.0875 596.6659 372.61874Q597.00964 373.13437 597.19714 373.88437Q597.38464 374.63437 597.38464 375.91562Q597.38464 377.43124 597.07214 378.35312Q596.77527 379.275 596.15027 379.79062Q595.5409 380.29062 594.58777 380.29062Q593.3534 380.29062 592.63464 379.4Q591.7909 378.3375 591.7909 375.91562ZM592.869 375.91562Q592.869 378.025 593.369 378.72812Q593.869 379.43124 594.58777 379.43124Q595.32214 379.43124 595.8065 378.72812Q596.3065 378.025 596.3065 375.91562Q596.3065 373.79062 595.8065 373.10312Q595.32214 372.4 594.57214 372.4Q593.8534 372.4 593.4159 373.00937Q592.869 373.79062 592.869 375.91562ZM599.38464 380.15L599.38464 378.94687L600.58777 378.94687L600.58777 380.15L599.38464 380.15ZM601.7909 377.9L602.90027 377.80624Q603.02527 378.61874 603.46277 379.025Q603.9159 379.43124 604.5565 379.43124Q605.3065 379.43124 605.83777 378.85312Q606.369 378.275 606.369 377.3375Q606.369 376.43124 605.8534 375.91562Q605.3534 375.38437 604.52527 375.38437Q604.02527 375.38437 603.6034 375.61874Q603.19714 375.85312 602.96277 376.2125L601.9784 376.0875L602.8065 371.68124L607.08777 371.68124L607.08777 372.68124L603.65027 372.68124L603.19714 374.99374Q603.96277 374.44687 604.8065 374.44687Q605.9315 374.44687 606.69714 375.22812Q607.4784 376.00937 607.4784 377.24374Q607.4784 378.4 606.8065 379.25937Q605.9784 380.29062 604.5565 380.29062Q603.38464 380.29062 602.63464 379.63437Q601.90027 378.97812 601.7909 377.9ZM609.1659 380.15L609.1659 371.55624L612.40027 371.55624Q613.38464 371.55624 613.9784 371.82187Q614.57214 372.0875 614.90027 372.63437Q615.244 373.16562 615.244 373.75937Q615.244 374.30624 614.94714 374.79062Q614.65027 375.275 614.0409 375.57187Q614.82214 375.80624 615.2284 376.36874Q615.65027 376.91562 615.65027 377.66562Q615.65027 378.25937 615.40027 378.79062Q615.15027 379.30624 614.77527 379.5875Q614.40027 379.86874 613.82214 380.00937Q613.25964 380.15 612.44714 380.15L609.1659 380.15ZM610.3065 375.16562L612.1659 375.16562Q612.9159 375.16562 613.244 375.07187Q613.6815 374.94687 613.90027 374.65Q614.119 374.3375 614.119 373.88437Q614.119 373.4625 613.9159 373.13437Q613.71277 372.80624 613.32214 372.69687Q612.94714 372.57187 612.02527 372.57187L610.3065 372.57187L610.3065 375.16562ZM610.3065 379.13437L612.44714 379.13437Q612.994 379.13437 613.21277 379.0875Q613.619 379.025 613.869 378.86874Q614.13464 378.69687 614.3065 378.38437Q614.4784 378.07187 614.4784 377.66562Q614.4784 377.18124 614.2284 376.82187Q613.994 376.4625 613.5565 376.32187Q613.119 376.18124 612.2909 376.18124L610.3065 376.18124L610.3065 379.13437Z" fill-rule="nonzero"/><path fill="#000000" d="M654.3324 380.15L653.2855 380.15L653.2855 373.43124Q652.8949 373.79062 652.2699 374.16562Q651.6605 374.525 651.17615 374.69687L651.17615 373.68124Q652.05115 373.25937 652.7074 372.68124Q653.3793 372.0875 653.6605 371.525L654.3324 371.525L654.3324 380.15ZM657.73865 380.15L657.73865 371.55624L660.973 371.55624Q661.9574 371.55624 662.55115 371.82187Q663.1449 372.0875 663.473 372.63437Q663.8168 373.16562 663.8168 373.75937Q663.8168 374.30624 663.5199 374.79062Q663.223 375.275 662.61365 375.57187Q663.3949 375.80624 663.80115 376.36874Q664.223 376.91562 664.223 377.66562Q664.223 378.25937 663.973 378.79062Q663.723 379.30624 663.348 379.5875Q662.973 379.86874 662.3949 380.00937Q661.8324 380.15 661.0199 380.15L657.73865 380.15ZM658.8793 375.16562L660.73865 375.16562Q661.48865 375.16562 661.8168 375.07187Q662.2543 374.94687 662.473 374.65Q662.6918 374.3375 662.6918 373.88437Q662.6918 373.4625 662.48865 373.13437Q662.2855 372.80624 661.8949 372.69687Q661.5199 372.57187 660.598 372.57187L658.8793 372.57187L658.8793 375.16562ZM658.8793 379.13437L661.0199 379.13437Q661.5668 379.13437 661.7855 379.0875Q662.1918 379.025 662.4418 378.86874Q662.7074 378.69687 662.8793 378.38437Q663.05115 378.07187 663.05115 377.66562Q663.05115 377.18124 662.80115 376.82187Q662.5668 376.4625 662.1293 376.32187Q661.6918 376.18124 660.86365 376.18124L658.8793 376.18124L658.8793 379.13437Z" fill-rule="nonzero"/><path stroke="#4285f4" stroke-width="4.0" stroke-linecap="butt" d="M248.5 28.85L260.5 28.85" fill-rule="nonzero"/><path fill="#1a1a1a" d="M269.39062 32.85L269.39062 24.256248L271.10938 24.256248L273.14062 30.334373Q273.42188 31.193748 273.54688 31.615623Q273.6875 31.146873 274.0 30.240623L276.0625 24.256248L277.59375 24.256248L277.59375 32.85L276.5 32.85L276.5 25.662498L274.0 32.85L272.96875 32.85L270.48438 25.537498L270.48438 32.85L269.39062 32.85ZM282.35938 32.084373Q281.76562 32.584373 281.21875 32.7875Q280.6875 32.990623 280.0625 32.990623Q279.03125 32.990623 278.48438 32.490623Q277.9375 31.990623 277.9375 31.209373Q277.9375 30.756248 278.14062 30.381248Q278.34375 29.990623 278.6875 29.771873Q279.03125 29.537498 279.45312 29.428123Q279.75 29.334373 280.39062 29.256248Q281.65625 29.115623 282.26562 28.896873Q282.26562 28.678123 282.26562 28.631248Q282.26562 27.974998 281.96875 27.709373Q281.5625 27.365623 280.76562 27.365623Q280.03125 27.365623 279.67188 27.631248Q279.3125 27.881248 279.14062 28.537498L278.10938 28.396873Q278.25 27.740623 278.57812 27.334373Q278.90625 26.928123 279.51562 26.709373Q280.125 26.490623 280.92188 26.490623Q281.71875 26.490623 282.21875 26.678123Q282.71875 26.865623 282.95312 27.146873Q283.1875 27.428123 283.28125 27.865623Q283.32812 28.131248 283.32812 28.834373L283.32812 30.240623Q283.32812 31.709373 283.39062 32.1Q283.46875 32.490623 283.67188 32.85L282.5625 32.85Q282.40625 32.521873 282.35938 32.084373ZM282.26562 29.724998Q281.6875 29.959373 280.54688 30.131248Q279.89062 30.224998 279.625 30.349998Q279.35938 30.459373 279.20312 30.678123Q279.0625 30.896873 279.0625 31.178123Q279.0625 31.599998 279.375 31.881248Q279.70312 32.1625 280.3125 32.1625Q280.92188 32.1625 281.39062 31.896873Q281.875 31.631248 282.09375 31.162498Q282.26562 30.803123 282.26562 30.115623L282.26562 29.724998ZM287.59375 31.912498L287.75 32.834373Q287.29688 32.928123 286.95312 32.928123Q286.375 32.928123 286.0625 32.75625Q285.75 32.56875 285.60938 32.271873Q285.48438 31.974998 285.48438 31.021873L285.48438 27.443748L284.71875 27.443748L284.71875 26.631248L285.48438 26.631248L285.48438 25.084373L286.53125 24.459373L286.53125 26.631248L287.59375 26.631248L287.59375 27.443748L286.53125 27.443748L286.53125 31.084373Q286.53125 31.537498 286.57812 31.662498Q286.64062 31.787498 286.76562 31.865623Q286.89062 31.943748 287.125 31.943748Q287.3125 31.943748 287.59375 31.912498ZM288.29688 32.85L288.29688 24.256248L289.34375 24.256248L289.34375 27.334373Q290.07812 26.490623 291.20312 26.490623Q291.90625 26.490623 292.40625 26.771873Q292.92188 27.037498 293.14062 27.521873Q293.35938 27.990623 293.35938 28.912498L293.35938 32.85L292.3125 32.85L292.3125 28.912498Q292.3125 28.115623 291.96875 27.756248Q291.625 27.396873 291.0 27.396873Q290.53125 27.396873 290.10938 27.646873Q289.70312 27.881248 289.51562 28.303123Q289.34375 28.709373 289.34375 29.443748L289.34375 32.85L288.29688 32.85ZM295.59375 32.85L295.59375 31.646873L296.79688 31.646873L296.79688 32.85L295.59375 32.85ZM298.4375 32.85L298.4375 24.256248L302.25 24.256248Q303.40625 24.256248 304.0 24.490623Q304.59375 24.724998 304.95312 25.318748Q305.3125 25.896873 305.3125 26.599998Q305.3125 27.521873 304.71875 28.146873Q304.125 28.771873 302.89062 28.943748Q303.34375 29.162498 303.57812 29.365623Q304.07812 29.818748 304.51562 30.506248L306.01562 32.85L304.57812 32.85L303.45312 31.068748Q302.95312 30.287498 302.625 29.881248Q302.3125 29.474998 302.04688 29.318748Q301.79688 29.146873 301.53125 29.068748Q301.34375 29.037498 300.90625 29.037498L299.57812 29.037498L299.57812 32.85L298.4375 32.85ZM299.57812 28.053123L302.03125 28.053123Q302.79688 28.053123 303.23438 27.896873Q303.6875 27.724998 303.90625 27.381248Q304.14062 27.021873 304.14062 26.599998Q304.14062 25.990623 303.6875 25.599998Q303.25 25.209373 302.29688 25.209373L299.57812 25.209373L299.57812 28.053123ZM311.35938 32.084373Q310.76562 32.584373 310.21875 32.7875Q309.6875 32.990623 309.0625 32.990623Q308.03125 32.990623 307.48438 32.490623Q306.9375 31.990623 306.9375 31.209373Q306.9375 30.756248 307.14062 30.381248Q307.34375 29.990623 307.6875 29.771873Q308.03125 29.537498 308.45312 29.428123Q308.75 29.334373 309.39062 29.256248Q310.65625 29.115623 311.26562 28.896873Q311.26562 28.678123 311.26562 28.631248Q311.26562 27.974998 310.96875 27.709373Q310.5625 27.365623 309.76562 27.365623Q309.03125 27.365623 308.67188 27.631248Q308.3125 27.881248 308.14062 28.537498L307.10938 28.396873Q307.25 27.740623 307.57812 27.334373Q307.90625 26.928123 308.51562 26.709373Q309.125 26.490623 309.92188 26.490623Q310.71875 26.490623 311.21875 26.678123Q311.71875 26.865623 311.95312 27.146873Q312.1875 27.428123 312.28125 27.865623Q312.32812 28.131248 312.32812 28.834373L312.32812 30.240623Q312.32812 31.709373 312.39062 32.1Q312.46875 32.490623 312.67188 32.85L311.5625 32.85Q311.40625 32.521873 311.35938 32.084373ZM311.26562 29.724998Q310.6875 29.959373 309.54688 30.131248Q308.89062 30.224998 308.625 30.349998Q308.35938 30.459373 308.20312 30.678123Q308.0625 30.896873 308.0625 31.178123Q308.0625 31.599998 308.375 31.881248Q308.70312 32.1625 309.3125 32.1625Q309.92188 32.1625 310.39062 31.896873Q310.875 31.631248 311.09375 31.162498Q311.26562 30.803123 311.26562 30.115623L311.26562 29.724998ZM314.29688 32.85L314.29688 26.631248L315.23438 26.631248L315.23438 27.506248Q315.92188 26.490623 317.21875 26.490623Q317.78125 26.490623 318.25 26.693748Q318.73438 26.896873 318.96875 27.224998Q319.20312 27.553123 319.29688 27.990623Q319.34375 28.287498 319.34375 29.021873L319.34375 32.85L318.29688 32.85L318.29688 29.068748Q318.29688 28.412498 318.17188 28.099998Q318.04688 27.787498 317.73438 27.599998Q317.42188 27.396873 317.0 27.396873Q316.32812 27.396873 315.82812 27.834373Q315.34375 28.256248 315.34375 29.443748L315.34375 32.85L314.29688 32.85ZM325.32812 32.85L325.32812 32.06875Q324.73438 32.990623 323.59375 32.990623Q322.84375 32.990623 322.21875 32.584373Q321.59375 32.1625 321.25 31.428123Q320.90625 30.693748 320.90625 29.740623Q320.90625 28.818748 321.21875 28.053123Q321.53125 27.287498 322.15625 26.896873Q322.78125 26.490623 323.54688 26.490623Q324.10938 26.490623 324.54688 26.724998Q324.98438 26.959373 325.26562 27.334373L325.26562 24.256248L326.3125 24.256248L326.3125 32.85L325.32812 32.85ZM322.0 29.740623Q322.0 30.943748 322.5 31.537498Q323.0 32.115623 323.6875 32.115623Q324.375 32.115623 324.85938 31.553123Q325.34375 30.990623 325.34375 29.834373Q325.34375 28.553123 324.84375 27.959373Q324.35938 27.365623 323.64062 27.365623Q322.9375 27.365623 322.46875 27.943748Q322.0 28.506248 322.0 29.740623ZM327.90625 29.740623Q327.90625 28.006248 328.85938 27.178123Q329.65625 26.490623 330.8125 26.490623Q332.09375 26.490623 332.90625 27.334373Q333.73438 28.162498 333.73438 29.646873Q333.73438 30.849998 333.375 31.537498Q333.01562 32.225 332.3125 32.615623Q331.625 32.990623 330.8125 32.990623Q329.51562 32.990623 328.70312 32.1625Q327.90625 31.318748 327.90625 29.740623ZM328.98438 29.740623Q328.98438 30.928123 329.5 31.521873Q330.03125 32.115623 330.8125 32.115623Q331.60938 32.115623 332.125 31.521873Q332.64062 30.928123 332.64062 29.709373Q332.64062 28.553123 332.10938 27.959373Q331.59375 27.365623 330.8125 27.365623Q330.03125 27.365623 329.5 27.959373Q328.98438 28.537498 328.98438 29.740623ZM335.29688 32.85L335.29688 26.631248L336.23438 26.631248L336.23438 27.506248Q336.53125 27.037498 337.01562 26.771873Q337.5 26.490623 338.125 26.490623Q338.8125 26.490623 339.25 26.771873Q339.70312 27.053123 339.875 27.568748Q340.625 26.490623 341.79688 26.490623Q342.73438 26.490623 343.21875 27.006248Q343.71875 27.506248 343.71875 28.584373L343.71875 32.85L342.67188 32.85L342.67188 28.928123Q342.67188 28.303123 342.5625 28.021873Q342.46875 27.740623 342.20312 27.568748Q341.9375 27.396873 341.5625 27.396873Q340.90625 27.396873 340.46875 27.834373Q340.04688 28.271873 340.04688 29.240623L340.04688 32.85L338.98438 32.85L338.98438 28.803123Q338.98438 28.099998 338.71875 27.756248Q338.46875 27.396873 337.89062 27.396873Q337.4375 27.396873 337.0625 27.631248Q336.6875 27.865623 336.51562 28.318748Q336.34375 28.771873 336.34375 29.615623L336.34375 32.85L335.29688 32.85Z" fill-rule="nonzero"/><path stroke="#ea4335" stroke-width="4.0" stroke-linecap="butt" d="M361.5 28.85L373.5 28.85" fill-rule="nonzero"/><path fill="#1a1a1a" d="M382.4375 32.85L382.4375 24.256248L386.25 24.256248Q387.40625 24.256248 388.0 24.490623Q388.59375 24.724998 388.95312 25.318748Q389.3125 25.896873 389.3125 26.599998Q389.3125 27.521873 388.71875 28.146873Q388.125 28.771873 386.89062 28.943748Q387.34375 29.162498 387.57812 29.365623Q388.07812 29.818748 388.51562 30.506248L390.01562 32.85L388.57812 32.85L387.45312 31.068748Q386.95312 30.287498 386.625 29.881248Q386.3125 29.474998 386.04688 29.318748Q385.79688 29.146873 385.53125 29.068748Q385.34375 29.037498 384.90625 29.037498L383.57812 29.037498L383.57812 32.85L382.4375 32.85ZM383.57812 28.053123L386.03125 28.053123Q386.79688 28.053123 387.23438 27.896873Q387.6875 27.724998 387.90625 27.381248Q388.14062 27.021873 388.14062 26.599998Q388.14062 25.990623 387.6875 25.599998Q387.25 25.209373 386.29688 25.209373L383.57812 25.209373L383.57812 28.053123ZM395.35938 32.084373Q394.76562 32.584373 394.21875 32.7875Q393.6875 32.990623 393.0625 32.990623Q392.03125 32.990623 391.48438 32.490623Q390.9375 31.990623 390.9375 31.209373Q390.9375 30.756248 391.14062 30.381248Q391.34375 29.990623 391.6875 29.771873Q392.03125 29.537498 392.45312 29.428123Q392.75 29.334373 393.39062 29.256248Q394.65625 29.115623 395.26562 28.896873Q395.26562 28.678123 395.26562 28.631248Q395.26562 27.974998 394.96875 27.709373Q394.5625 27.365623 393.76562 27.365623Q393.03125 27.365623 392.67188 27.631248Q392.3125 27.881248 392.14062 28.537498L391.10938 28.396873Q391.25 27.740623 391.57812 27.334373Q391.90625 26.928123 392.51562 26.709373Q393.125 26.490623 393.92188 26.490623Q394.71875 26.490623 395.21875 26.678123Q395.71875 26.865623 395.95312 27.146873Q396.1875 27.428123 396.28125 27.865623Q396.32812 28.131248 396.32812 28.834373L396.32812 30.240623Q396.32812 31.709373 396.39062 32.1Q396.46875 32.490623 396.67188 32.85L395.5625 32.85Q395.40625 32.521873 395.35938 32.084373ZM395.26562 29.724998Q394.6875 29.959373 393.54688 30.131248Q392.89062 30.224998 392.625 30.349998Q392.35938 30.459373 392.20312 30.678123Q392.0625 30.896873 392.0625 31.178123Q392.0625 31.599998 392.375 31.881248Q392.70312 32.1625 393.3125 32.1625Q393.92188 32.1625 394.39062 31.896873Q394.875 31.631248 395.09375 31.162498Q395.26562 30.803123 395.26562 30.115623L395.26562 29.724998ZM398.29688 32.85L398.29688 26.631248L399.23438 26.631248L399.23438 27.506248Q399.92188 26.490623 401.21875 26.490623Q401.78125 26.490623 402.25 26.693748Q402.73438 26.896873 402.96875 27.224998Q403.20312 27.553123 403.29688 27.990623Q403.34375 28.287498 403.34375 29.021873L403.34375 32.85L402.29688 32.85L402.29688 29.068748Q402.29688 28.412498 402.17188 28.099998Q402.04688 27.787498 401.73438 27.599998Q401.42188 27.396873 401.0 27.396873Q400.32812 27.396873 399.82812 27.834373Q399.34375 28.256248 399.34375 29.443748L399.34375 32.85L398.29688 32.85ZM409.32812 32.85L409.32812 32.06875Q408.73438 32.990623 407.59375 32.990623Q406.84375 32.990623 406.21875 32.584373Q405.59375 32.1625 405.25 31.428123Q404.90625 30.693748 404.90625 29.740623Q404.90625 28.818748 405.21875 28.053123Q405.53125 27.287498 406.15625 26.896873Q406.78125 26.490623 407.54688 26.490623Q408.10938 26.490623 408.54688 26.724998Q408.98438 26.959373 409.26562 27.334373L409.26562 24.256248L410.3125 24.256248L410.3125 32.85L409.32812 32.85ZM406.0 29.740623Q406.0 30.943748 406.5 31.537498Q407.0 32.115623 407.6875 32.115623Q408.375 32.115623 408.85938 31.553123Q409.34375 30.990623 409.34375 29.834373Q409.34375 28.553123 408.84375 27.959373Q408.35938 27.365623 407.64062 27.365623Q406.9375 27.365623 406.46875 27.943748Q406.0 28.506248 406.0 29.740623ZM411.90625 29.740623Q411.90625 28.006248 412.85938 27.178123Q413.65625 26.490623 414.8125 26.490623Q416.09375 26.490623 416.90625 27.334373Q417.73438 28.162498 417.73438 29.646873Q417.73438 30.849998 417.375 31.537498Q417.01562 32.225 416.3125 32.615623Q415.625 32.990623 414.8125 32.990623Q413.51562 32.990623 412.70312 32.1625Q411.90625 31.318748 411.90625 29.740623ZM412.98438 29.740623Q412.98438 30.928123 413.5 31.521873Q414.03125 32.115623 414.8125 32.115623Q415.60938 32.115623 416.125 31.521873Q416.64062 30.928123 416.64062 29.709373Q416.64062 28.553123 416.10938 27.959373Q415.59375 27.365623 414.8125 27.365623Q414.03125 27.365623 413.5 27.959373Q412.98438 28.537498 412.98438 29.740623ZM419.29688 32.85L419.29688 26.631248L420.23438 26.631248L420.23438 27.506248Q420.53125 27.037498 421.01562 26.771873Q421.5 26.490623 422.125 26.490623Q422.8125 26.490623 423.25 26.771873Q423.70312 27.053123 423.875 27.568748Q424.625 26.490623 425.79688 26.490623Q426.73438 26.490623 427.21875 27.006248Q427.71875 27.506248 427.71875 28.584373L427.71875 32.85L426.67188 32.85L426.67188 28.928123Q426.67188 28.303123 426.5625 28.021873Q426.46875 27.740623 426.20312 27.568748Q425.9375 27.396873 425.5625 27.396873Q424.90625 27.396873 424.46875 27.834373Q424.04688 28.271873 424.04688 29.240623L424.04688 32.85L422.98438 32.85L422.98438 28.803123Q422.98438 28.099998 422.71875 27.756248Q422.46875 27.396873 421.89062 27.396873Q421.4375 27.396873 421.0625 27.631248Q420.6875 27.865623 420.51562 28.318748Q420.34375 28.771873 420.34375 29.615623L420.34375 32.85L419.29688 32.85ZM430.26562 32.85L430.26562 24.256248L431.32812 24.256248L431.32812 32.85L430.26562 32.85ZM433.25 35.240623L433.125 34.25625Q433.46875 34.35 433.73438 34.35Q434.07812 34.35 434.28125 34.225Q434.5 34.115623 434.64062 33.9125Q434.73438 33.740623 434.96875 33.115623Q434.98438 33.0375 435.0625 32.865623L432.6875 26.631248L433.82812 26.631248L435.125 30.224998Q435.375 30.912498 435.57812 31.678123Q435.76562 30.943748 436.01562 30.256248L437.34375 26.631248L438.39062 26.631248L436.03125 32.959373Q435.64062 33.975 435.4375 34.365623Q435.15625 34.896873 434.78125 35.13125Q434.42188 35.38125 433.92188 35.38125Q433.625 35.38125 433.25 35.240623ZM438.59375 32.85L438.59375 31.646873L439.79688 31.646873L439.79688 32.85L438.59375 32.85ZM441.09375 33.365623L442.125 33.521873Q442.1875 33.990623 442.48438 34.209373Q442.875 34.50625 443.54688 34.50625Q444.28125 34.50625 444.67188 34.209373Q445.07812 33.9125 445.21875 33.396873Q445.3125 33.06875 445.29688 32.0375Q444.60938 32.85 443.57812 32.85Q442.29688 32.85 441.59375 31.928123Q440.89062 30.990623 440.89062 29.709373Q440.89062 28.818748 441.20312 28.068748Q441.53125 27.303123 442.14062 26.896873Q442.75 26.490623 443.57812 26.490623Q444.6875 26.490623 445.40625 27.381248L445.40625 26.631248L446.375 26.631248L446.375 32.00625Q446.375 33.459373 446.07812 34.06875Q445.78125 34.678123 445.14062 35.021873Q444.5 35.38125 443.5625 35.38125Q442.45312 35.38125 441.76562 34.88125Q441.07812 34.38125 441.09375 33.365623ZM441.96875 29.631248Q441.96875 30.849998 442.45312 31.412498Q442.9375 31.974998 443.67188 31.974998Q444.40625 31.974998 444.89062 31.412498Q445.39062 30.849998 445.39062 29.662498Q445.39062 28.521873 444.875 27.943748Q444.375 27.365623 443.65625 27.365623Q442.95312 27.365623 442.45312 27.943748Q441.96875 28.506248 441.96875 29.631248ZM452.54688 30.849998L453.64062 30.974998Q453.39062 31.928123 452.6875 32.459373Q451.98438 32.990623 450.90625 32.990623Q449.54688 32.990623 448.73438 32.146873Q447.9375 31.303123 447.9375 29.787498Q447.9375 28.224998 448.75 27.365623Q449.5625 26.490623 450.84375 26.490623Q452.09375 26.490623 452.875 27.334373Q453.67188 28.178123 453.67188 29.724998Q453.67188 29.818748 453.67188 30.006248L449.03125 30.006248Q449.09375 31.037498 449.60938 31.584373Q450.125 32.115623 450.90625 32.115623Q451.48438 32.115623 451.89062 31.818748Q452.3125 31.506248 452.54688 30.849998ZM449.09375 29.146873L452.5625 29.146873Q452.5 28.349998 452.17188 27.959373Q451.65625 27.349998 450.85938 27.349998Q450.125 27.349998 449.625 27.834373Q449.14062 28.318748 449.09375 29.146873ZM457.59375 31.912498L457.75 32.834373Q457.29688 32.928123 456.95312 32.928123Q456.375 32.928123 456.0625 32.75625Q455.75 32.56875 455.60938 32.271873Q455.48438 31.974998 455.48438 31.021873L455.48438 27.443748L454.71875 27.443748L454.71875 26.631248L455.48438 26.631248L455.48438 25.084373L456.53125 24.459373L456.53125 26.631248L457.59375 26.631248L457.59375 27.443748L456.53125 27.443748L456.53125 31.084373Q456.53125 31.537498 456.57812 31.662498Q456.64062 31.787498 456.76562 31.865623Q456.89062 31.943748 457.125 31.943748Q457.3125 31.943748 457.59375 31.912498Z" fill-rule="nonzero"/></svg>